<?xml version="1.0" encoding="utf-8"?>
<!-- Generator: Adobe Illustrator 24.1.3, SVG Export Plug-In . SVG Version: 6.00 Build 0)  -->
<svg version="1.1" id="Layer_1" xmlns="http://www.w3.org/2000/svg" xmlns:xlink="http://www.w3.org/1999/xlink" x="0px" y="0px"
	 viewBox="0 0 28.4 25.6" style="enable-background:new 0 0 28.4 25.6;" xml:space="preserve">
<style type="text/css">
	.st0{fill:#FAFAFD;}
	.st1{fill:#FA7268;}
	.st2{fill:#1D194D;}
	.st3{fill:#FFFFFF;}
	.st4{fill:#636466;}
	.st5{fill:#49D3CE;}
	.st6{fill:#FFA800;}
	.st7{opacity:0.54;}
	.st8{opacity:0.6;fill:#FFFFFF;}
	.st9{opacity:0.6;}
	.st10{opacity:0;}
	.st11{fill:#54ECE6;}
	.st12{opacity:0.4;}
	.st13{opacity:0.2;fill:#49D3CE;}
	.st14{fill:#DEEBF5;}
	.st15{fill:none;stroke:#DEEBF5;stroke-width:0.5632;stroke-miterlimit:10;}
	.st16{fill:#F1F4FA;}
	.st17{fill:#A7A9AC;}
	.st18{fill:none;stroke:#C7C8CA;stroke-miterlimit:10;}
	.st19{fill:none;stroke:#1D194D;stroke-width:1.0946;stroke-miterlimit:10;}
	.st20{clip-path:url(#Rectangle-4_25_);}
	.st21{fill:#FCD3AC;}
	.st22{fill:#FCBC85;}
	.st23{fill:#3B2519;}
	.st24{fill:#F7945E;}
	.st25{fill:#F9AA8D;}
	.st26{fill:#35A7A3;}
	.st27{clip-path:url(#Rectangle-4_26_);}
	.st28{clip-path:url(#Rectangle-4_27_);}
	.st29{clip-path:url(#Rectangle-4_28_);}
	.st30{clip-path:url(#Rectangle-4_29_);}
	.st31{fill:#32A562;}
	.st32{fill:#1C1C1C;}
	.st33{fill:#F1F3F8;}
	.st34{fill:#1D1B4C;}
	.st35{opacity:0.874;fill:#49D3CE;enable-background:new    ;}
	.st36{fill:#F8FAFE;}
	.st37{fill:#D1D3D4;}
	.st38{fill:none;}
	.st39{fill:#C7C8CA;}
	.st40{fill:none;stroke:#1D194D;stroke-miterlimit:10;}
	.st41{fill:none;stroke:#BCBEC0;stroke-miterlimit:10;}
	.st42{fill:#47C9C0;}
	.st43{fill:#54ECE6;stroke:#1D194D;stroke-width:2;stroke-miterlimit:10;}
	.st44{fill:none;stroke:#FA7268;stroke-miterlimit:10;}
	.st45{fill:#FFFFFF;stroke:#BCBEC0;stroke-miterlimit:10;}
	.st46{fill:#F1F2F2;}
	.st47{fill:#939598;}
	.st48{fill:none;stroke:#49D3CE;stroke-width:1.313;stroke-miterlimit:10;}
	.st49{fill:none;stroke:#FA7268;stroke-width:1.3128;stroke-miterlimit:10;}
	.st50{opacity:0.2;fill:#54ECE6;}
	.st51{fill:none;stroke:#54ECE6;stroke-width:1.2291;stroke-miterlimit:10;}
	.st52{fill:none;stroke:#000000;stroke-width:0.8165;stroke-linecap:round;stroke-linejoin:round;stroke-miterlimit:10;}
	.st53{fill:#E5E5E3;}
	.st54{clip-path:url(#Rectangle-4_30_);}
	.st55{clip-path:url(#Rectangle-4_32_);}
	.st56{fill:none;stroke:#49D3CE;stroke-width:0.7;stroke-miterlimit:10;}
	.st57{fill:none;stroke:#FFFFFF;stroke-width:1.69;stroke-linecap:round;stroke-linejoin:round;stroke-miterlimit:10;}
	.st58{fill:none;stroke:#BCBEC0;stroke-width:0.669;stroke-miterlimit:10;}
	.st59{fill:none;stroke:#49D3CE;stroke-miterlimit:10;}
	.st60{fill:none;stroke:#1D194D;stroke-width:0.9674;stroke-miterlimit:10;}
	.st61{fill:none;stroke:#1D194D;stroke-linecap:round;stroke-miterlimit:10;}
	.st62{clip-path:url(#Rectangle-4_44_);}
	.st63{clip-path:url(#Rectangle-4_45_);}
	.st64{clip-path:url(#Rectangle-4_46_);}
	.st65{clip-path:url(#Rectangle-4_49_);}
	.st66{fill:#F1F3F8;stroke:#49D3CE;stroke-width:0.5;stroke-miterlimit:10;}
	.st67{fill:#14133D;}
</style>
<g id="ic_x5F_delete_x0D_" class="st7">
</g>
<g id="ic_x5F_sent" class="st7">
</g>
<g id="ic_x5F_social_x0D__1_">
</g>
<g id="ic_x5F_arrow_x5F_back" class="st7">
</g>
<g id="ic_x5F_shoppingCart_x0D_" class="st7">
</g>
<g id="ic_x5F_spam_x0D_" class="st7">
</g>
<g id="ic_x5F_updates" class="st7">
</g>
<g id="ic_x5F_promotions" class="st7">
</g>
<g id="ui_x5F_menu_x5F_light">
</g>
<g>
	<g id="Group_5_Copy_2_15_">
		<path id="Rectangle-36_15_" class="st33" d="M14.3,0L14.3,0c7.1,0,12.8,5.7,12.8,12.8l0,0c0,7.1-5.7,12.8-12.8,12.8l0,0
			c-7.1,0-12.8-5.7-12.8-12.8l0,0C1.5,5.7,7.3,0,14.3,0z"/>
	</g>
	<g>
		<g>
			<g>
				<path class="st2" d="M4,9.2c0,0.6,0.2,1.1,0.5,1.5c0.2,0.2,0.5,0.4,0.8,0.5c0.5,0.1,1,0,1.3-0.4C6.9,10.5,7,10.2,7.1,10
					c0.2-0.4,0.3-0.7,0.5-1.1C7.8,8.6,8,8.5,8.3,8.6C9,8.8,9.8,8.7,10.6,8.7c0.7,0,1.3-0.1,2-0.1c0.6-0.1,1.2-0.3,1.7-0.6
					c0.2-0.1,0.4-0.3,0.4-0.5c0.1-0.4-0.1-0.8-0.6-0.9c-0.1,0-0.2,0-0.3,0c0.7-0.2,1.4-0.4,2.1-0.6c2.5-0.7,5-1.4,7.5-2
					c0.9-0.2,1.5,0.1,1.7,1c0.7,2.7,1.5,5.3,2.2,8c0.2,0.8-0.1,1.5-1,1.7c-7.2,2-14.4,3.9-21.6,5.9c-0.8,0.2-1.5-0.2-1.7-1
					c-0.7-2.7-1.5-5.4-2.2-8.1c-0.2-0.8,0.2-1.4,1-1.7c0.6-0.2,1.3-0.3,1.9-0.5C3.9,9.2,3.9,9.2,4,9.2z M21.1,9.8
					c-0.3-0.3-0.6-0.6-0.9-0.8c-0.1-0.1-0.2-0.1-0.3-0.1C19.8,8.9,19.6,9,19.4,9c-0.1,0-0.2,0.1-0.2,0.3c0.3,0.9,0.5,1.7,0.8,2.6
					c0,0.1,0.1,0.2,0.3,0.1c0.1,0,0.3-0.1,0.4-0.1c0.2-0.1,0.3-0.1,0.2-0.4c-0.1-0.3-0.2-0.6-0.3-1c0.3,0.3,0.7,0.6,1,0.9
					c0.1,0.1,0.2,0.1,0.3,0.1c0.2,0,0.4-0.1,0.6-0.2c0.2,0,0.2-0.1,0.2-0.3c0-0.1-0.1-0.3-0.1-0.4C22.2,10,22,9.3,21.8,8.6
					c-0.1-0.2-0.1-0.2-0.3-0.2c-0.1,0-0.2,0.1-0.4,0.1c-0.3,0.1-0.3,0.1-0.2,0.4C21,9.2,21,9.4,21.1,9.8z M9.3,15.2
					c0.9,0.1,1.6-0.6,1.7-1.4c0.1-1-0.6-1.8-1.4-1.9c-0.9-0.1-1.6,0.5-1.7,1.4C7.8,14.3,8.4,15.1,9.3,15.2z M19.4,11.3
					c0-0.4-0.1-0.7-0.2-1.1c-0.3-0.6-0.9-0.9-1.5-0.8c-0.7,0.1-1.2,0.5-1.3,1.2c-0.1,0.6,0,1.1,0.4,1.5c0.4,0.5,1,0.7,1.6,0.5
					C19,12.4,19.4,12,19.4,11.3z M13.8,13.1c0,0,0-0.1,0-0.2c-0.2-0.6-0.3-1.2-0.5-1.8c0-0.1-0.1-0.2-0.3-0.1
					c-0.1,0-0.3,0.1-0.4,0.1c-0.3,0.1-0.3,0.1-0.2,0.4c0.1,0.5,0.3,0.9,0.4,1.4c0,0.1,0.1,0.3,0,0.4c0,0.1-0.1,0.2-0.2,0.3
					c-0.1,0-0.2,0-0.3-0.1c-0.1-0.1-0.1-0.2-0.2-0.3c-0.1-0.5-0.3-1-0.4-1.4c-0.1-0.2-0.1-0.2-0.3-0.2c-0.2,0-0.3,0.1-0.5,0.1
					c-0.2,0.1-0.2,0.1-0.2,0.3c0.1,0.4,0.2,0.9,0.4,1.3c0.1,0.2,0.2,0.5,0.3,0.7c0.2,0.4,0.6,0.6,1.1,0.6
					C13.2,14.3,13.8,13.8,13.8,13.1z M15.2,12.5c0.2-0.1,0.4-0.2,0.5-0.3c0.5-0.3,0.6-0.8,0.4-1.3c-0.2-0.5-0.6-0.7-1.2-0.6
					c-0.4,0.1-0.8,0.2-1.2,0.4c-0.1,0-0.2,0.1-0.1,0.3c0.2,0.9,0.5,1.7,0.8,2.6c0,0.2,0.2,0.2,0.3,0.2c0.2,0,0.3-0.1,0.5-0.1
					c0.2,0,0.2-0.1,0.2-0.3C15.3,13,15.2,12.8,15.2,12.5z M5.4,14.2c0,0.1,0,0.2,0,0.3c0.1,0.8,0.6,1.3,1.4,1.4
					c0.5,0,0.9-0.1,1.4-0.4c0.1-0.1,0.2-0.2,0.1-0.4c-0.1-0.1-0.1-0.2-0.2-0.3c-0.1-0.2-0.2-0.2-0.4-0.1c-0.2,0.1-0.3,0.2-0.5,0.2
					c-0.4,0.1-0.6-0.1-0.8-0.5c-0.1-0.4,0-0.7,0.3-0.9c0.2-0.1,0.4-0.1,0.5-0.1c0.2,0,0.3-0.1,0.3-0.3c0-0.1,0-0.2,0-0.3
					c0-0.2-0.1-0.3-0.3-0.3c-0.4,0-0.7,0.1-1.1,0.3C5.8,13.1,5.5,13.5,5.4,14.2z"/>
				<path class="st2" d="M1.9,9.1c0,0-0.1,0.1-0.2,0.2c-0.5,0.2-0.8,0.4-1.1,0.9c-0.1,0.2-0.2,0.2-0.4,0.1C0.1,10.2,0.1,10,0.2,9.9
					C0.5,9.3,1,9,1.6,8.8C1.8,8.8,1.9,8.9,1.9,9.1z"/>
				<path class="st2" d="M26.2,4.9C26.2,5,26.1,5.1,26,5.1c-0.1,0-0.2-0.1-0.3-0.1c-0.1-0.1-0.1-0.2-0.1-0.3C25.5,4.3,25.3,4,25,3.7
					c-0.2-0.1-0.2-0.3-0.1-0.4c0.1-0.1,0.3-0.1,0.4,0c0.5,0.4,0.7,0.9,0.8,1.5C26.2,4.8,26.2,4.8,26.2,4.9
					C26.2,4.9,26.2,4.9,26.2,4.9z"/>
				<path class="st2" d="M14.5,5.7c0,0-0.1,0.1-0.2,0.2c-0.5,0.2-1,0.3-1.5,0.4c-0.2,0-0.3,0-0.3-0.2c-0.1-0.1,0-0.3,0.2-0.3
					c0.5-0.1,1-0.3,1.6-0.4C14.3,5.3,14.5,5.5,14.5,5.7z"/>
				<path class="st2" d="M8.1,20.5c0,0-0.1,0.1-0.2,0.2c-0.5,0.2-1,0.3-1.6,0.4c-0.2,0-0.3,0-0.3-0.2c0-0.2,0-0.3,0.2-0.3
					c0.5-0.1,1.1-0.3,1.6-0.4C8,20.1,8.1,20.2,8.1,20.5z"/>
				<path class="st2" d="M18.8,4.6c-0.1-0.1-0.2-0.2-0.2-0.3c0-0.1,0.1-0.2,0.2-0.3c0.4-0.1,0.8-0.2,1.3-0.3c0.1,0,0.2-0.1,0.3-0.1
					c0.1,0,0.3,0.1,0.3,0.2c0,0.1-0.1,0.3-0.1,0.3C20,4.3,19.5,4.5,18.8,4.6C18.9,4.6,18.9,4.6,18.8,4.6C18.9,4.6,18.9,4.6,18.8,4.6
					z"/>
				<path class="st2" d="M27,15.3c0,0-0.1,0.1-0.2,0.2c-0.5,0.2-1,0.3-1.6,0.4c-0.2,0-0.3,0-0.3-0.2c0-0.2,0-0.3,0.2-0.3
					c0.5-0.1,1-0.3,1.6-0.4C26.8,15,27,15.1,27,15.3z"/>
				<path class="st2" d="M2.7,19.5c-0.1,0.1-0.2,0.2-0.2,0.2c-0.2,0-0.3,0-0.3-0.2c-0.1-0.3-0.2-0.7-0.3-1c0-0.2-0.1-0.4-0.1-0.6
					c0-0.1,0-0.3,0.2-0.3c0.2,0,0.3,0,0.3,0.2c0.1,0.5,0.3,1.1,0.4,1.6C2.7,19.4,2.7,19.4,2.7,19.5C2.7,19.5,2.7,19.5,2.7,19.5z"/>
				<path class="st2" d="M17.6,4.9c0,0-0.1,0.1-0.2,0.2c-0.5,0.2-1,0.3-1.6,0.4c-0.2,0-0.3,0-0.3-0.2c0-0.1,0-0.3,0.2-0.3
					c0.5-0.1,1-0.3,1.5-0.4C17.5,4.5,17.6,4.6,17.6,4.9z"/>
				<path class="st2" d="M21.9,16.8c-0.1-0.1-0.1-0.1-0.2-0.2c0-0.1,0-0.2,0.2-0.3c0.2-0.1,0.4-0.1,0.6-0.2c0.3-0.1,0.6-0.2,1-0.3
					c0.2-0.1,0.4,0,0.4,0.2c0,0.2,0,0.3-0.3,0.3c-0.5,0.1-1,0.3-1.4,0.4C22.1,16.8,22,16.8,21.9,16.8z"/>
				<path class="st2" d="M11.1,19.3c0.1,0.1,0.2,0.1,0.2,0.2c0,0.1-0.1,0.2-0.1,0.3c0,0-0.1,0-0.1,0.1c-0.5,0.1-1,0.3-1.4,0.4
					c-0.2,0.1-0.3,0-0.4-0.2c0-0.2,0-0.3,0.3-0.3c0.5-0.1,0.9-0.3,1.4-0.4C10.9,19.3,11,19.3,11.1,19.3z"/>
				<path class="st2" d="M26.7,8.2c0,0-0.1-0.1-0.2-0.2c-0.2-0.5-0.3-1-0.4-1.5c0-0.2,0-0.3,0.2-0.3c0.1,0,0.3,0,0.3,0.2
					c0.1,0.5,0.3,1,0.4,1.5C27.1,8.1,27,8.3,26.7,8.2z"/>
				<path class="st2" d="M1.2,14.5c0,0,0.1,0.1,0.2,0.2c0.2,0.5,0.3,1,0.4,1.5c0,0.2,0,0.3-0.2,0.3c-0.2,0-0.3,0-0.3-0.2
					c-0.1-0.5-0.3-1-0.4-1.5C0.8,14.6,0.9,14.5,1.2,14.5z"/>
				<path class="st2" d="M18.8,17.7c0-0.1-0.2-0.1-0.2-0.2c0-0.2,0-0.3,0.2-0.3c0.4-0.1,0.8-0.2,1.2-0.3c0.1,0,0.2-0.1,0.4-0.1
					c0.1,0,0.3,0,0.3,0.2c0,0.1,0,0.3-0.2,0.3c-0.5,0.2-1.1,0.3-1.6,0.4C18.9,17.7,18.9,17.7,18.8,17.7z"/>
				<path class="st2" d="M14.4,18.8c0,0-0.1,0.1-0.2,0.2c-0.5,0.2-1,0.3-1.5,0.4c-0.2,0-0.3,0-0.4-0.2c0-0.2,0-0.3,0.2-0.3
					c0.5-0.1,1-0.3,1.5-0.4C14.3,18.4,14.4,18.5,14.4,18.8z"/>
				<path class="st2" d="M22,3.8c-0.1-0.1-0.2-0.1-0.2-0.2c0-0.1,0.1-0.3,0.2-0.3C22.5,3.1,23,3,23.6,2.8c0.2,0,0.3,0,0.3,0.2
					c0,0.2-0.1,0.3-0.2,0.3c-0.5,0.1-1,0.3-1.5,0.4C22.1,3.8,22.1,3.8,22,3.8z"/>
				<path class="st2" d="M0.3,11.4c0,0,0.1,0.1,0.2,0.2c0.2,0.5,0.3,1,0.4,1.5c0,0.2,0,0.3-0.2,0.3c-0.2,0-0.3,0-0.3-0.2
					c-0.1-0.5-0.3-1-0.4-1.5C0,11.5,0.1,11.3,0.3,11.4z"/>
				<path class="st2" d="M27.3,9.3C27.3,9.3,27.3,9.3,27.3,9.3c0.1,0.1,0.2,0.1,0.2,0.2c0.2,0.5,0.3,1,0.4,1.5c0,0.2,0,0.3-0.2,0.3
					c-0.2,0-0.3,0-0.3-0.2c-0.1-0.5-0.3-1-0.4-1.5C26.9,9.4,27.1,9.3,27.3,9.3z"/>
				<path class="st2" d="M17.5,17.9c0,0-0.1,0.1-0.2,0.2c-0.5,0.2-1,0.3-1.5,0.4c-0.2,0-0.3,0-0.3-0.2c-0.1-0.2,0-0.3,0.2-0.3
					c0.5-0.1,1-0.3,1.5-0.4C17.4,17.5,17.6,17.6,17.5,17.9z"/>
				<path class="st2" d="M28.4,13.1c0,0.3,0,0.6-0.1,0.9c0,0.1-0.1,0.3-0.1,0.4c-0.1,0.2-0.2,0.2-0.4,0.2c-0.1-0.1-0.2-0.2-0.1-0.4
					c0.2-0.4,0.2-0.9,0.1-1.3c-0.1-0.2,0-0.3,0.2-0.4c0.2,0,0.3,0,0.3,0.2C28.4,12.8,28.4,12.9,28.4,13.1z"/>
				<path class="st2" d="M4.3,21.5c-0.4,0-0.8-0.2-1.2-0.4C2.9,21,2.9,20.8,3,20.7c0.1-0.1,0.2-0.2,0.4,0C3.8,20.9,4.2,21,4.6,21
					C4.9,21,5,21,5,21.2c0,0.2-0.1,0.3-0.3,0.3C4.5,21.5,4.4,21.5,4.3,21.5z"/>
				<path class="st2" d="M4,8.1c0.2,0,0.4,0.3,0.2,0.4c0,0,0,0,0,0c0,0-0.1,0.1-0.2,0.1C3.8,8.7,3.6,8.8,3.3,8.9
					C3.1,8.9,3,8.9,3,8.7c0-0.2,0-0.3,0.3-0.3c0.2,0,0.3-0.1,0.5-0.1C3.8,8.2,3.9,8.1,4,8.1z"/>
				<path class="st2" d="M9.9,13.8c0,0.3-0.1,0.5-0.3,0.5c-0.2,0.1-0.4,0-0.5-0.2c-0.2-0.3-0.2-0.5-0.2-0.8c0-0.2,0.1-0.3,0.3-0.4
					c0.2-0.1,0.3,0,0.5,0.1C9.9,13.2,9.9,13.5,9.9,13.8z"/>
				<path class="st2" d="M18.4,11.3c0,0.3-0.1,0.4-0.3,0.5c-0.2,0.1-0.4,0-0.5-0.2c-0.2-0.3-0.3-0.6-0.2-0.9c0-0.2,0.1-0.3,0.3-0.3
					c0.2,0,0.3,0,0.4,0.1C18.3,10.7,18.4,11,18.4,11.3z"/>
				<path class="st2" d="M14.9,11.7c0-0.2-0.1-0.3-0.1-0.4c0.2-0.1,0.4-0.1,0.4,0.1C15.2,11.5,15.2,11.6,14.9,11.7z"/>
			</g>
		</g>
		<g>
			<path class="st5" d="M9.6,6.9c0.2,0,0.3,0,0.4,0c1.3,0,2.6,0.1,3.9,0.1c0.1,0,0.2,0.1,0.3,0.1c0,0.1-0.1,0.2-0.1,0.3
				C13.5,7.8,12.9,8,12.2,8C11.1,8.1,10,8.1,8.9,8.1C8.6,8.1,8.3,8,8,8C7.9,8,7.8,8,7.7,8.1C7.3,8.3,7,8.7,6.9,9.2
				C6.7,9.5,6.6,9.8,6.5,10c-0.4,0.8-1.1,0.9-1.6,0.2C4.7,10,4.6,9.8,4.6,9.5C4.5,9.2,4.6,8.9,5,8.7c0.5-0.3,1-0.6,1.4-0.8
				c0.1,0,0.1-0.1,0.2-0.2c-0.3,0-0.6,0-0.9-0.1c-0.3,0-0.6,0-0.9,0c-0.5,0-0.9-0.3-0.9-0.8c0-0.3,0-0.6,0.1-0.9
				C4.2,5.5,4.6,5.3,5,5.5c0.3,0.1,0.5,0.3,0.8,0.5c0.4,0.3,0.8,0.6,1.3,0.7c0,0,0.1,0,0.1,0c0.2,0.1,0.3,0,0.5-0.1
				c0.4-0.3,0.8-0.6,1.3-0.9c0.7-0.4,1.4-0.7,2-1c0.5-0.3,1.1-0.4,1.7-0.5c0.1,0,0.3,0,0.4,0c0.1,0,0.2,0.1,0.2,0.1
				c0.1,0.1,0,0.2-0.1,0.3c-1.2,0.7-2.3,1.4-3.5,2.1C9.7,6.8,9.7,6.9,9.6,6.9z M4.9,7.1c0,0,0.1,0,0.2,0c0.4-0.1,0.5-0.3,0.3-0.7
				C5.3,6.2,5.1,6.1,4.8,6C4.7,6,4.6,6,4.5,6.1C4.3,6.3,4.3,6.5,4.4,6.8C4.5,7,4.6,7.1,4.9,7.1z M6.2,9.5C6.2,9.4,6.2,9.4,6.2,9.5
				c0-0.3-0.2-0.6-0.4-0.6c-0.3,0-0.6,0.2-0.7,0.5C5,9.6,5.2,10,5.5,10.1c0.1,0,0.3,0,0.4-0.1C6,9.9,6.1,9.6,6.2,9.5z M7.6,7.3
				c0,0.2,0.2,0.4,0.4,0.4c0.2,0,0.4-0.2,0.4-0.4c0-0.2-0.2-0.4-0.4-0.5C7.8,6.8,7.6,7,7.6,7.3z"/>
			<path class="st5" d="M8.2,7.4c-0.1,0.1-0.3,0.1-0.4,0c0,0,0,0,0-0.1c0,0,0,0,0-0.1c0.1-0.1,0.3-0.1,0.4,0
				C8.2,7.2,8.2,7.3,8.2,7.4C8.2,7.3,8.2,7.3,8.2,7.4z"/>
		</g>
	</g>
</g>
</svg>
