<?xml version="1.0" encoding="utf-8"?>
<!-- Generator: Adobe Illustrator 24.1.3, SVG Export Plug-In . SVG Version: 6.00 Build 0)  -->
<svg version="1.1" id="Layer_1" xmlns="http://www.w3.org/2000/svg" xmlns:xlink="http://www.w3.org/1999/xlink" x="0px" y="0px"
	 viewBox="0 0 158.3 35.1" style="enable-background:new 0 0 158.3 35.1;" xml:space="preserve">
<style type="text/css">
	.st0{enable-background:new    ;}
	.st1{fill:#FFA800;}
</style>
<g>
	<g class="st0">
		<path class="st1" d="M0.6,0.9h13v0.8H9.8v23.6h1.3c2,0,3.7-0.6,4.9-1.9c1.2-1.2,2.4-3.2,3.7-5.8h0.8l-0.7,8.4H0.6v-0.8h2.1V1.7
			H0.6V0.9z"/>
		<path class="st1" d="M31.1,17.6h1v-2.8c0-2.3-0.1-3.8-0.4-4.6c-0.3-0.8-0.7-1.2-1.5-1.2c-0.4,0-0.8,0.1-1.2,0.3
			c-0.3,0.2-0.5,0.5-0.5,0.9s0.1,0.8,0.2,1.2h0.9c0.2,0.5,0.3,1.1,0.3,1.8c0,0.7-0.3,1.3-0.9,1.8c-0.6,0.5-1.4,0.8-2.3,0.8
			c-2.1,0-3.1-1-3.1-3c0-3,2.5-4.4,7.5-4.4c2.9,0,4.8,0.5,5.9,1.5c1.1,1,1.6,2.8,1.6,5.3v7.3c0,1.2,0.3,1.9,1,1.9
			c0.8,0,1.3-1.2,1.4-3.7l0.5,0c-0.1,2.1-0.5,3.6-1.2,4.4c-0.7,0.8-1.8,1.2-3.4,1.2c-2.9,0-4.5-0.9-5-2.7c-0.3,0.9-0.8,1.6-1.4,2
			c-0.6,0.4-1.5,0.6-2.7,0.6c-3.6,0-5.3-1.5-5.3-4.4c0-1.7,0.7-2.9,2-3.5C26.2,17.9,28.3,17.6,31.1,17.6z M29.9,24.5
			c0.1,0.4,0.4,0.5,0.8,0.5c0.4,0,0.7-0.3,1-0.9c0.3-0.6,0.5-1.5,0.5-2.5v-3.3h-0.3c-1.5,0-2.2,1.1-2.2,3.3v0.6
			C29.7,23.3,29.7,24.1,29.9,24.5z"/>
		<path class="st1" d="M64.3,1.2c-3.7,0-5.6,3.6-5.6,10.8v2.8c0,3.4,0.5,6.1,1.5,8c1,1.9,2.4,2.9,4.4,2.9c2.6,0,5.1-2.6,7.3-7.7h0.6
			l-0.3,8h-0.4c-0.1-0.3-0.3-0.5-0.4-0.6c-0.1-0.1-0.3-0.2-0.5-0.2c-0.2,0-1.1,0.2-2.6,0.6c-1.5,0.4-3,0.6-4.6,0.6
			c-3.9,0-6.9-1.1-9.1-3.2c-2.1-2.1-3.2-5.3-3.2-9.5c0-4.2,1.1-7.5,3.4-9.8C57,1.6,60,0.5,63.8,0.5c1.5,0,2.9,0.2,4.3,0.6
			c1.4,0.4,2.2,0.6,2.5,0.6s0.4-0.1,0.5-0.2s0.3-0.3,0.4-0.6h0.4l0.3,7.8h-0.6c-1.1-2.4-2.2-4.3-3.3-5.6C67.1,1.9,65.8,1.2,64.3,1.2
			z"/>
		<path class="st1" d="M78.2,24.1c-1.5-1.5-2.3-3.7-2.3-6.6c0-2.9,0.8-5.1,2.5-6.6c1.6-1.5,4-2.3,6.9-2.3s5.2,0.7,6.7,2.1
			c1.5,1.4,2.2,3.6,2.2,6.5c0,6.1-3,9.2-9.1,9.2C82,26.4,79.7,25.7,78.2,24.1z M87.2,19v-3.1c0-2.3-0.1-4-0.4-5.1
			c-0.3-1.1-0.8-1.6-1.7-1.6c-0.5,0-1,0.2-1.3,0.5c-0.3,0.3-0.6,0.8-0.7,1.5c-0.2,1.1-0.3,2.7-0.3,4.9v2.8c0,2.6,0.1,4.2,0.2,4.7
			c0.2,0.5,0.3,1,0.5,1.3c0.3,0.6,0.8,0.9,1.5,0.9c0.9,0,1.5-0.5,1.8-1.6C87.1,23.4,87.2,21.7,87.2,19z"/>
		<path class="st1" d="M117,26.1h-8.2l-0.4-2.6c-0.4,1-1,1.7-1.7,2.2s-1.9,0.8-3.4,0.8c-3.7,0-5.6-2-5.6-6V9.6h-2V8.9h8.7v12.3
			c0,1.4,0.1,2.4,0.3,2.8c0.2,0.5,0.6,0.7,1.2,0.7s1.2-0.4,1.6-1.1s0.7-1.8,0.7-3.1v-11h-1.7V8.9h8.4v16.5h2V26.1z"/>
		<path class="st1" d="M127.1,8.9v2.8c0.9-2.1,2.6-3.2,5-3.2c2.1,0,3.7,0.7,4.8,2.2c1.1,1.5,1.7,3.7,1.7,6.8c0,3-0.6,5.3-1.9,6.7
			c-1.2,1.4-3.1,2.2-5.6,2.2c-1.2,0-2-0.1-2.6-0.4c-0.6-0.3-1-0.7-1.4-1.3V34h4.6v0.6h-13.3V34h2V9.6h-1.9V8.9H127.1z M131.3,11.4
			c-0.2-0.9-0.7-1.3-1.4-1.3s-1.3,0.5-1.9,1.4c-0.6,0.9-0.8,2.1-0.8,3.6v6.6c0,1,0.2,1.9,0.6,2.6c0.4,0.7,1,1.1,1.8,1.1
			s1.3-0.5,1.6-1.6c0.3-1.1,0.4-2.9,0.4-5.5v-1.9C131.6,13.9,131.5,12.3,131.3,11.4z"/>
		<path class="st1" d="M142.9,24.1c-1.5-1.6-2.3-3.8-2.3-6.7s0.9-5,2.6-6.5s4-2.3,6.6-2.3c5.4,0,8.1,2.7,7.8,8.2h-10.2v1.4
			c0,2.4,0.3,4.1,0.9,5.3c0.6,1.2,1.6,1.8,3.1,1.8c2.8,0,4.6-1.5,5.5-4.5l0.6,0.1c-0.5,1.7-1.3,3.1-2.5,4c-1.2,1-3,1.4-5.3,1.4
			C146.8,26.4,144.5,25.6,142.9,24.1z M144.2,5.2c-0.4-0.5-0.6-1.2-0.6-1.9c0-0.7,0.2-1.4,0.7-1.9s1.1-0.8,1.9-0.8
			c0.8,0,1.5,0.2,2,0.7c0.5,0.4,0.7,1.1,0.7,1.9c0,0.8-0.2,1.5-0.7,2c-0.5,0.5-1.1,0.7-2,0.7S144.6,5.7,144.2,5.2z M147.6,16.1h3.7
			v-1.8c0-1.9-0.1-3.3-0.3-4c-0.2-0.7-0.7-1.1-1.4-1.1c-0.7,0-1.2,0.4-1.5,1.1c-0.3,0.8-0.5,2.1-0.5,3.9V16.1z M151.1,5.2
			c-0.4-0.5-0.6-1.2-0.6-1.9c0-0.7,0.2-1.4,0.7-1.9s1.1-0.8,1.9-0.8c0.8,0,1.5,0.2,2,0.7c0.5,0.4,0.7,1.1,0.7,1.9
			c0,0.8-0.2,1.5-0.7,2c-0.5,0.5-1.1,0.7-2,0.7S151.6,5.7,151.1,5.2z"/>
	</g>
</g>
</svg>
