<?xml version="1.0" encoding="utf-8"?>
<!-- Generator: Adobe Illustrator 24.1.3, SVG Export Plug-In . SVG Version: 6.00 Build 0)  -->
<svg version="1.1" id="Layer_1" xmlns="http://www.w3.org/2000/svg" xmlns:xlink="http://www.w3.org/1999/xlink" x="0px" y="0px"
	 viewBox="0 0 29.4 25.6" style="enable-background:new 0 0 29.4 25.6;" xml:space="preserve">
<style type="text/css">
	.st0{fill:#FAFAFD;}
	.st1{fill:#FA7268;}
	.st2{fill:#1D194D;}
	.st3{fill:#FFFFFF;}
	.st4{fill:#636466;}
	.st5{fill:#49D3CE;}
	.st6{fill:#FFA800;}
	.st7{opacity:0.54;}
	.st8{opacity:0.6;fill:#FFFFFF;}
	.st9{opacity:0.6;}
	.st10{opacity:0;}
	.st11{fill:#54ECE6;}
	.st12{opacity:0.4;}
	.st13{opacity:0.2;fill:#49D3CE;}
	.st14{fill:#DEEBF5;}
	.st15{fill:none;stroke:#DEEBF5;stroke-width:0.5632;stroke-miterlimit:10;}
	.st16{fill:#F1F4FA;}
	.st17{fill:#A7A9AC;}
	.st18{fill:none;stroke:#C7C8CA;stroke-miterlimit:10;}
	.st19{fill:none;stroke:#1D194D;stroke-width:1.0946;stroke-miterlimit:10;}
	.st20{clip-path:url(#Rectangle-4_25_);}
	.st21{fill:#FCD3AC;}
	.st22{fill:#FCBC85;}
	.st23{fill:#3B2519;}
	.st24{fill:#F7945E;}
	.st25{fill:#F9AA8D;}
	.st26{fill:#35A7A3;}
	.st27{clip-path:url(#Rectangle-4_26_);}
	.st28{clip-path:url(#Rectangle-4_27_);}
	.st29{clip-path:url(#Rectangle-4_28_);}
	.st30{clip-path:url(#Rectangle-4_29_);}
	.st31{fill:#32A562;}
	.st32{fill:#1C1C1C;}
	.st33{fill:#F1F3F8;}
	.st34{fill:#1D1B4C;}
	.st35{opacity:0.874;fill:#49D3CE;enable-background:new    ;}
	.st36{fill:#F8FAFE;}
	.st37{fill:#D1D3D4;}
	.st38{fill:none;}
	.st39{fill:#C7C8CA;}
	.st40{fill:none;stroke:#1D194D;stroke-miterlimit:10;}
	.st41{fill:none;stroke:#BCBEC0;stroke-miterlimit:10;}
	.st42{fill:#47C9C0;}
	.st43{fill:#54ECE6;stroke:#1D194D;stroke-width:2;stroke-miterlimit:10;}
	.st44{fill:none;stroke:#FA7268;stroke-miterlimit:10;}
	.st45{fill:#FFFFFF;stroke:#BCBEC0;stroke-miterlimit:10;}
	.st46{fill:#F1F2F2;}
	.st47{fill:#939598;}
	.st48{fill:none;stroke:#49D3CE;stroke-width:1.313;stroke-miterlimit:10;}
	.st49{fill:none;stroke:#FA7268;stroke-width:1.3128;stroke-miterlimit:10;}
	.st50{opacity:0.2;fill:#54ECE6;}
	.st51{fill:none;stroke:#54ECE6;stroke-width:1.2291;stroke-miterlimit:10;}
	.st52{fill:none;stroke:#000000;stroke-width:0.8165;stroke-linecap:round;stroke-linejoin:round;stroke-miterlimit:10;}
	.st53{fill:#E5E5E3;}
	.st54{clip-path:url(#Rectangle-4_30_);}
	.st55{clip-path:url(#Rectangle-4_32_);}
	.st56{fill:none;stroke:#49D3CE;stroke-width:0.7;stroke-miterlimit:10;}
	.st57{fill:none;stroke:#FFFFFF;stroke-width:1.69;stroke-linecap:round;stroke-linejoin:round;stroke-miterlimit:10;}
	.st58{fill:none;stroke:#BCBEC0;stroke-width:0.669;stroke-miterlimit:10;}
	.st59{fill:none;stroke:#49D3CE;stroke-miterlimit:10;}
	.st60{fill:none;stroke:#1D194D;stroke-width:0.9674;stroke-miterlimit:10;}
	.st61{fill:none;stroke:#1D194D;stroke-linecap:round;stroke-miterlimit:10;}
	.st62{clip-path:url(#Rectangle-4_44_);}
	.st63{clip-path:url(#Rectangle-4_45_);}
	.st64{clip-path:url(#Rectangle-4_46_);}
	.st65{clip-path:url(#Rectangle-4_49_);}
	.st66{fill:#F1F3F8;stroke:#49D3CE;stroke-width:0.5;stroke-miterlimit:10;}
	.st67{fill:#14133D;}
	.st68{font-family:'AbrilFatface-Regular';}
	.st69{font-size:3.8622px;}
</style>
<g id="ic_x5F_delete_x0D_" class="st7">
</g>
<g id="ic_x5F_sent" class="st7">
</g>
<g id="ic_x5F_social_x0D__1_">
</g>
<g id="ic_x5F_arrow_x5F_back" class="st7">
</g>
<g id="ic_x5F_shoppingCart_x0D_" class="st7">
</g>
<g id="ic_x5F_spam_x0D_" class="st7">
</g>
<g id="ic_x5F_updates" class="st7">
</g>
<g id="ic_x5F_promotions" class="st7">
</g>
<g id="ui_x5F_menu_x5F_light">
</g>
<g>
	<g id="Group_5_Copy_2_14_">
		<path id="Rectangle-36_14_" class="st33" d="M15.6,0L15.6,0c7.1,0,12.8,5.7,12.8,12.8l0,0c0,7.1-5.7,12.8-12.8,12.8l0,0
			c-7.1,0-12.8-5.7-12.8-12.8l0,0C2.8,5.7,8.5,0,15.6,0z"/>
	</g>
	<g>
		<path class="st5" d="M3.8,19C4.9,18.7,6,18.4,7,18.1c0.9-0.2,1.8-0.5,2.7-0.7c1.4-0.4,2.3-1.9,2-3.3c-0.5-2.1-1.1-4.2-1.6-6.4
			c0-0.1-0.1-0.2-0.1-0.3c0.1,0,0.2-0.1,0.3-0.1c3.1-0.8,6.2-1.6,9.3-2.4c1.7-0.5,3.4-0.9,5.2-1.4c1.2-0.3,2,0.2,2.3,1.3
			c0.8,2.9,1.5,5.8,2.3,8.8c0.2,1-0.3,1.8-1.3,2.1c-1.6,0.4-3.2,0.8-4.9,1.3c-3.2,0.8-6.4,1.7-9.6,2.5c-0.9,0.2-1.4,1.2-1.3,2.2
			c0,0.3,0.2,0.6,0.2,1c-0.1-0.1-0.2-0.2-0.3-0.3c-0.6-1-1.6-1.6-2.8-1.7c-0.5,0-0.9,0.1-1.4,0.3c-0.7,0.2-1.3,0.4-2,0.5
			c-0.9,0.2-1.7-0.3-1.9-1.2C4,19.8,3.9,19.4,3.8,19z"/>
		<path class="st6" d="M7.3,6.8c0.8,0,1.5,0.5,1.7,1.2c0.5,2,1.1,4.1,1.6,6.1c0.2,1-0.3,1.8-1.2,2.1c-1.8,0.5-3.7,1-5.5,1.4
			c-1.1,0.3-1.9-0.2-2.2-1.3c-0.5-2-1.1-4-1.6-6c-0.2-0.9,0.3-1.8,1.2-2.1c1.9-0.5,3.8-1,5.7-1.5C7.1,6.9,7.2,6.9,7.3,6.8z"/>
		<text transform="matrix(0.9683 -0.2496 0.2496 0.9683 12.7208 11.8991)"><tspan x="0" y="0" class="st2 st68 st69">Special</tspan><tspan x="1.4" y="4.6" class="st2 st68 st69">offers</tspan></text>
	</g>
</g>
</svg>
